HIERARCHY
ROOT hip
{
	OFFSET 0.000000 0.000000 0.000000 
	CHANNELS 6 Xposition Yposition Zposition Xrotation Zrotation Yrotation
	JOINT abdomen
	{
		OFFSET 0.000000 3.402643 0.000000 
		CHANNELS 3 Xrotation Zrotation Yrotation
		JOINT chest
		{
			OFFSET 0.000000 8.438565 -0.680529 
			CHANNELS 3 Xrotation Zrotation Yrotation
			JOINT neck
			{
				OFFSET 0.000000 10.207942 -0.272212 
				CHANNELS 3 Xrotation Zrotation Yrotation
				JOINT head
				{
					OFFSET 0.000000 3.130431 0.000000 
					CHANNELS 3 Xrotation Zrotation Yrotation
					End Site
					{
						OFFSET 0.000000 3.130435 0.000000 
					}
				}
			}
			JOINT lCollar
			{
				OFFSET 3.470700 6.669187 -0.816635 
				CHANNELS 3 Yrotation Zrotation Xrotation
				JOINT lShldr
				{
					OFFSET 3.198488 0.000000 0.000000 
					CHANNELS 3 Zrotation Yrotation Xrotation
					JOINT lForeArm
					{
						OFFSET 10.139888 0.000000 0.000000 
						CHANNELS 3 Yrotation Zrotation Xrotation
						JOINT lHand
						{
							OFFSET 8.370511 0.000000 0.000000 
							CHANNELS 3 Zrotation Yrotation Xrotation
							End Site
							{
								OFFSET 4.083176 0.000000 0.000000 
							}
						}
					}
				}
			}
			JOINT rCollar
			{
				OFFSET -3.470700 6.669187 -0.816635 
				CHANNELS 3 Yrotation Zrotation Xrotation
				JOINT rShldr
				{
					OFFSET -3.198488 0.000000 0.000000 
					CHANNELS 3 Zrotation Yrotation Xrotation
					JOINT rForeArm
					{
						OFFSET -10.139888 0.000000 0.000000 
						CHANNELS 3 Yrotation Zrotation Xrotation
						JOINT rHand
						{
							OFFSET -8.370511 0.000000 0.000000 
							CHANNELS 3 Zrotation Yrotation Xrotation
							End Site
							{
								OFFSET -4.083176 0.000000 0.000000 
							}
						}
					}
				}
			}
		}
	}
	JOINT lThigh
	{
		OFFSET 5.308129 -1.633274 1.361059 
		CHANNELS 3 Xrotation Zrotation Yrotation
		JOINT lShin
		{
			OFFSET -2.041588 -20.007561 0.000000 
			CHANNELS 3 Xrotation Zrotation Yrotation
			JOINT lFoot
			{
				OFFSET 0.000000 -19.190928 -1.224953 
				CHANNELS 3 Xrotation Yrotation Zrotation
				End Site
				{
					OFFSET 0.000000 -2.449906 4.627600 
				}
			}
		}
	}
	JOINT rThigh
	{
		OFFSET -5.308129 -1.633274 1.361059 
		CHANNELS 3 Xrotation Zrotation Yrotation
		JOINT rShin
		{
			OFFSET 2.041588 -20.007561 0.000000 
			CHANNELS 3 Xrotation Zrotation Yrotation
			JOINT rFoot
			{
				OFFSET 0.000000 -19.190928 -1.224953 
				CHANNELS 3 Xrotation Yrotation Zrotation
				End Site
				{
					OFFSET 0.000000 -2.449906 4.627600 
				}
			}
		}
	}
}
MOTION
Frames: 17
Frame Time: 0.033333
0.602854 51.459026 0.392393 0.517755 -1.249963 0.439349 0.000000 0.000000 0.000000 5.233817 -3.271485 0.009750 -0.228177 1.414052 3.018586 3.794827 0.224072 3.964889 -3.521967 9.154817 6.304141 -69.011627 5.888310 -36.646259 -18.427103 7.518546 31.261328 6.942445 -1.784799 -8.471647 3.089181 -14.089146 8.026228 72.913338 1.505652 -31.129539 11.593784 -10.372397 55.024925 1.560803 4.543046 -7.533123 -2.811955 5.632804 8.100808 11.208724 -3.195331 -8.370531 -7.407682 0.210175 -0.964376 -0.742431 -7.212956 -13.699577 7.639435 2.836408 -2.994716 -2.778975 0.003640 -1.316201 
0.695679 51.447182 0.357203 0.234105 -1.337853 0.429798 0.000000 0.000000 0.000000 8.963036 -3.280995 0.713958 -2.373779 1.472578 3.008826 4.287005 0.574853 3.877150 -3.521967 9.154817 6.304141 -71.794563 2.584048 -34.874527 -17.724892 7.108995 32.283581 5.587929 -1.809095 -8.303440 3.089181 -14.089146 8.026228 75.465477 4.476856 -27.415922 10.842290 -9.559455 56.624191 5.245110 7.756797 -6.645867 -2.714233 5.671633 8.228447 11.557940 -3.302609 -8.635702 -7.575488 0.171076 -0.757499 -0.888865 -7.333170 -13.805600 8.429517 2.797220 -2.849213 -2.445883 0.004524 -1.114325 
0.774519 51.414055 0.341857 -0.037772 -1.620991 0.644550 0.000000 0.000000 0.000000 12.410471 -3.075139 1.486428 -3.870325 1.531369 2.803820 4.437788 0.828383 3.662573 -3.521967 9.154817 6.304141 -74.085045 -0.735466 -32.371284 -16.880512 6.613441 32.182690 3.513738 -1.210901 -8.064524 3.089181 -14.089146 8.026228 77.553894 7.419430 -23.901484 10.235603 -8.659851 58.180256 8.558830 9.278687 -5.878448 -2.850847 6.101303 8.710904 12.476353 -3.586255 -9.354203 -7.977565 0.159627 -0.516451 -0.820590 -7.174209 -13.844722 8.859641 2.807181 -3.153073 -2.342644 -0.003509 -1.159286 
0.872147 51.372414 0.368739 -0.355047 -1.747740 1.074613 0.000000 0.000000 0.000000 15.640341 -3.268858 2.298425 -5.225381 1.512163 2.559506 4.787508 1.218654 3.321223 -3.521967 9.154817 6.304141 -75.757774 -4.038882 -30.089638 -16.239527 6.312614 33.366272 3.892677 -0.738016 -8.133416 3.089181 -14.089146 8.026228 79.563454 10.238067 -20.612646 9.724532 -7.785705 59.407299 10.542958 9.457262 -5.470186 -2.900006 6.130742 8.712849 13.282640 -3.517758 -9.656088 -8.534876 0.130603 -0.196980 -0.694299 -7.209153 -13.964952 9.483947 2.767939 -3.350149 -2.539987 0.024869 -1.380295 
0.996966 51.328381 0.468574 -0.881650 -1.679167 1.426314 0.000000 0.000000 0.000000 19.106627 -4.065815 3.230463 -7.105019 2.059264 2.022985 5.538484 0.916595 3.135301 -3.521967 9.154817 6.304141 -76.972878 -7.404454 -28.058598 -15.710032 6.135861 34.932281 5.275051 -0.447477 -8.297421 3.089181 -14.089146 8.026228 81.614609 13.141949 -17.628222 9.336518 -7.003370 59.835304 11.145863 9.035563 -5.432819 -2.497545 5.977937 8.739530 13.804440 -3.537680 -9.897670 -8.739860 0.109600 -0.056142 -0.498567 -7.518209 -14.241307 10.567516 2.699839 -3.257683 -2.733434 0.024683 -1.581476 
1.120342 51.246510 0.567937 -1.246686 -1.581065 2.002538 0.000000 0.000000 0.000000 21.990976 -4.774235 3.880572 -8.740916 2.479546 1.563994 5.987578 0.585141 2.988524 -3.521967 9.154817 6.304141 -78.290810 -10.578560 -25.498531 -15.091575 5.828383 34.502350 6.523285 0.146931 -8.435912 3.089181 -14.089146 8.026228 83.427834 15.896717 -14.795300 9.289239 -6.386820 61.040829 10.524192 8.865085 -5.572881 -2.362311 5.894042 8.802572 14.474327 -3.644985 -10.577585 -9.129314 0.064352 0.278186 -0.732810 -7.885637 -14.569345 12.357037 2.534830 -3.297343 -3.005677 0.042710 -1.702063 
1.214575 51.147152 0.670063 -1.479671 -1.531445 2.744987 0.000000 0.000000 0.000000 23.974190 -5.035176 4.225282 -9.607924 2.362519 1.456659 5.726903 0.682770 2.812766 -3.521967 9.154817 6.304141 -79.714249 -13.141036 -23.124390 -14.700324 5.605569 33.964710 6.734533 0.857713 -8.464023 3.089181 -14.089146 8.026228 84.921524 18.393265 -12.249648 9.367342 -6.002296 62.348625 9.903487 9.528857 -5.588115 -2.547621 5.874452 8.883069 15.583690 -3.704169 -11.322200 -10.100269 -0.044678 0.961793 -1.328410 -8.173585 -14.828835 14.597672 2.243015 -3.562831 -3.312467 0.076582 -1.922038 
1.283040 51.031673 0.798989 -1.872169 -1.607931 3.721977 0.000000 0.000000 0.000000 25.425348 -4.800579 4.360668 -10.440876 2.138147 1.270469 5.759348 0.604870 2.548995 -3.521967 9.154817 6.304141 -80.997734 -15.176503 -20.480726 -14.130178 5.418155 35.415943 8.560105 1.460364 -8.639235 3.089181 -14.089146 8.026228 86.166176 20.542105 -10.190654 9.675530 -5.940096 62.968422 9.846943 9.970308 -5.532048 -2.743595 6.042904 9.060587 17.105175 -3.733795 -12.102800 -11.328336 -0.173794 1.780257 -2.011416 -8.301064 -14.997948 17.389240 1.796248 -3.887081 -3.022544 0.059835 -1.779538 
1.351452 50.875980 0.917100 -2.223201 -1.605802 4.747783 0.000000 0.000000 0.000000 26.650324 -4.586178 4.389076 -11.619395 1.991771 1.172864 6.104019 0.722042 2.363586 -3.521967 9.154817 6.304141 -82.021454 -16.956871 -17.480822 -13.709149 5.281056 36.236343 11.035206 1.562714 -8.869821 3.089181 -14.089146 8.026228 87.209572 22.540440 -8.281987 10.065377 -6.037455 62.911213 9.232059 10.011087 -5.639799 -3.084356 6.177042 9.237624 18.791470 -3.763668 -13.226178 -12.473642 -0.326278 2.601300 -3.319971 -8.657251 -15.157147 21.323711 1.171385 -3.706487 -2.043873 0.014315 -1.329759 
1.414700 50.710381 1.050177 -2.496169 -1.370527 5.538557 0.000000 0.000000 0.000000 27.580763 -4.887767 4.429598 -12.703847 2.128525 1.085050 6.214391 0.800111 2.344067 -3.521967 9.154817 6.304141 -82.766861 -18.414688 -14.632689 -13.827161 5.202976 35.474037 11.786623 1.628392 -8.939353 3.089181 -14.089146 8.026228 88.229706 24.390915 -6.718840 10.317749 -6.100971 62.786236 8.285602 8.958546 -5.960171 -3.405132 6.046936 9.157882 20.350727 -3.686429 -14.012754 -13.185735 -0.389418 3.009865 -5.145689 -9.312796 -15.346357 25.892113 0.370523 -3.138057 -0.176949 -0.039071 -0.370211 
1.462740 50.543400 1.215170 -2.740218 -0.999463 6.465729 0.000000 0.000000 0.000000 28.017361 -4.986229 4.264195 -13.218829 1.982145 0.957810 6.073126 0.741651 2.177931 -3.521967 9.154817 6.304141 -83.393585 -19.439596 -11.934966 -14.005188 5.177397 34.892529 11.554681 2.097612 -8.901986 3.089181 -14.089146 8.026228 88.995018 25.878160 -5.816321 10.442031 -6.165286 63.029648 7.324074 8.259651 -6.225743 -3.581128 5.774899 9.052168 21.636742 -3.598186 -14.855207 -13.897857 -0.478046 3.417204 -6.981627 -10.232037 -15.545981 30.176674 -0.205412 -1.536410 2.640167 -0.093934 0.846928 
1.468256 50.419941 1.388515 -2.768529 -0.861858 7.422647 0.000000 0.000000 0.000000 28.109390 -4.645960 4.163623 -13.216639 1.454854 1.006279 5.662962 0.839370 1.924051 -3.521967 9.154817 6.304141 -83.990425 -20.282654 -9.560014 -14.120966 5.123734 34.144009 11.144227 2.382178 -8.847539 3.089181 -14.089146 8.026228 89.277840 27.218676 -5.209200 10.370340 -6.070204 63.080021 6.430143 8.470473 -6.361804 -3.933033 5.805295 9.068710 22.806364 -3.569519 -15.930781 -14.415944 -0.551026 3.744390 -8.619982 -10.890934 -15.683631 32.569916 -0.263597 1.264421 4.634684 -0.033306 1.254137 
1.451108 50.346153 1.539397 -2.581959 -0.763421 8.291706 0.000000 0.000000 0.000000 28.002377 -4.333354 4.328394 -13.149560 0.859253 0.966981 5.290666 0.995728 1.553009 -3.521967 9.154817 6.304141 -84.625641 -21.175419 -8.065876 -14.169076 5.111412 33.901402 11.137930 2.421904 -8.849810 3.089181 -14.089146 8.026228 89.225334 28.418501 -5.055005 10.220531 -5.918507 63.389614 6.655140 8.513408 -6.316485 -4.316236 5.839259 9.066277 23.505077 -3.492311 -16.701654 -14.613091 -0.590265 3.977585 -10.154554 -11.539391 -15.699424 32.780533 0.175774 4.677470 5.743409 -0.015755 1.091606 
1.409165 50.306923 1.681774 -2.386791 -0.636468 9.072785 0.000000 0.000000 0.000000 28.081093 -4.059129 4.610858 -13.303189 0.634723 0.664130 4.936975 0.702963 1.230616 -3.521967 9.154817 6.304141 -85.346954 -22.032866 -7.714988 -14.498586 5.190551 33.605080 10.902655 2.660602 -8.825851 3.089181 -14.089146 8.026228 88.735611 29.552822 -5.280488 10.011792 -5.690597 63.864235 7.162758 8.799284 -6.188724 -4.488237 5.774161 9.007750 23.686831 -3.432845 -17.140326 -14.775308 -0.685137 4.378646 -11.551057 -12.076867 -15.491268 31.608353 0.634873 6.846766 5.535868 -0.031150 0.502697 
1.341452 50.307880 1.829909 -2.275854 -0.625531 9.785740 0.000000 0.000000 0.000000 28.373779 -3.774054 5.108427 -13.355749 0.966790 0.214978 4.472460 -0.009764 1.152344 -3.521967 9.154817 6.304141 -86.112946 -22.855198 -7.865721 -14.986285 5.286857 32.358162 11.111957 2.898522 -8.835058 3.089181 -14.089146 8.026228 87.931206 30.522631 -5.375115 9.751416 -5.417604 63.643349 7.784305 8.775052 -6.087021 -4.468693 5.871713 9.049490 23.577639 -3.384328 -17.716211 -14.523682 -0.764530 4.794904 -12.810940 -12.409419 -15.216675 29.571520 0.898994 6.866912 5.184808 -0.014074 0.334227 
1.269317 50.316395 2.023753 -2.308721 -0.652905 10.518223 0.000000 0.000000 0.000000 28.834064 -3.236548 5.584893 -13.465518 0.624999 0.117287 4.014990 0.087881 0.859389 -3.521967 9.154817 6.304141 -86.985718 -23.518738 -8.000145 -15.204414 5.282034 30.643309 12.277251 3.271948 -8.911274 3.089181 -14.089146 8.026228 86.888000 31.298935 -5.847543 9.541589 -5.245711 63.632263 8.274990 8.404964 -6.050924 -4.149969 6.014616 9.137932 23.220743 -3.336551 -18.343418 -14.320447 -0.853443 5.370855 -13.717025 -12.699298 -14.865905 26.692781 1.015853 5.793668 6.037397 -0.014921 1.060147 
1.165523 50.331524 2.266240 -2.369597 -0.612677 11.397077 0.000000 0.000000 0.000000 29.431231 -2.603641 5.836016 -13.827793 0.195312 0.097689 3.734197 0.390607 0.546929 -3.521967 9.154817 6.304141 -87.666756 -24.068794 -8.408669 -15.065667 5.209860 29.970699 13.186048 3.823002 -8.951349 3.089181 -14.089146 8.026228 85.695526 31.932306 -6.512915 9.245292 -5.008788 63.828247 7.976614 8.043620 -6.146331 -3.738867 6.139192 9.254288 22.897718 -3.285855 -18.808899 -14.244286 -0.964049 5.925355 -14.235585 -13.062275 -14.547138 23.061049 1.142562 4.640592 7.215832 -0.009507 1.924946 
